<svg xmlns="http://www.w3.org/2000/svg" viewBox="0 0 435.38 100" width="435" height="100" role="img">
  <title>Solvyn logo, for dark backgrounds</title>
  <g>
    <path d="M16 32 L16 16 L32 16" stroke="#FAFAFA" stroke-width="6" stroke-linecap="square" fill="none"/>
  <path d="M84 68 L84 84 L68 84" stroke="#FAFAFA" stroke-width="6" stroke-linecap="square" fill="none"/>
  <rect x="38" y="38" width="24" height="24" fill="#2DD4BF" transform="rotate(45 50 50)"/>
  </g>
  <path d="M29.86 1.34Q22.27 1.34 16.42-1.34Q10.56-4.03 7.25-9.26Q3.94-14.50 3.94-21.98L3.94-24.38L14.21-24.38L14.21-21.98Q14.21-14.88 18.48-11.33Q22.75-7.78 29.86-7.78Q37.06-7.78 40.70-10.80Q44.35-13.82 44.35-18.62Q44.35-21.79 42.62-23.81Q40.90-25.82 37.73-27.02Q34.56-28.22 30.14-29.28L26.59-30.14Q20.16-31.68 15.41-33.94Q10.66-36.19 8.06-39.94Q5.47-43.68 5.47-49.54Q5.47-55.49 8.40-59.71Q11.33-63.94 16.51-66.24Q21.70-68.54 28.70-68.54Q35.71-68.54 41.23-66.14Q46.75-63.74 49.92-59.04Q53.09-54.34 53.09-47.23L53.09-43.78L42.82-43.78L42.82-47.23Q42.82-51.55 41.04-54.24Q39.26-56.93 36.10-58.18Q32.93-59.42 28.70-59.42Q22.56-59.42 19.15-56.88Q15.74-54.34 15.74-49.82Q15.74-46.75 17.23-44.78Q18.72-42.82 21.60-41.57Q24.48-40.32 28.80-39.36L32.35-38.50Q38.88-37.06 43.87-34.80Q48.86-32.54 51.74-28.70Q54.62-24.86 54.62-18.82Q54.62-12.77 51.60-8.26Q48.58-3.74 43.01-1.20Q37.44 1.34 29.86 1.34M87.94 1.34Q80.83 1.34 75.31-1.58Q69.79-4.51 66.62-9.98Q63.46-15.46 63.46-22.94L63.46-24.38Q63.46-31.87 66.62-37.30Q69.79-42.72 75.31-45.70Q80.83-48.67 87.94-48.67Q95.04-48.67 100.61-45.70Q106.18-42.72 109.34-37.30Q112.51-31.87 112.51-24.38L112.51-22.94Q112.51-15.46 109.34-9.98Q106.18-4.51 100.61-1.58Q95.04 1.34 87.94 1.34M87.94-7.49Q94.46-7.49 98.54-11.66Q102.62-15.84 102.62-23.23L102.62-24.10Q102.62-31.49 98.59-35.66Q94.56-39.84 87.94-39.84Q81.50-39.84 77.42-35.66Q73.34-31.49 73.34-24.10L73.34-23.23Q73.34-15.84 77.42-11.66Q81.50-7.49 87.94-7.49M134.69 0L124.80 0L124.80-67.20L134.69-67.20L134.69 0M176.06 0L160.32 0L144.38-47.33L154.85-47.33L167.42-7.30L168.96-7.30L181.54-47.33L192-47.33L176.06 0M236.45 19.20L207.07 19.20L207.07 10.56L233.47 10.56Q236.16 10.56 236.16 7.68L236.16-6.91L234.62-6.91Q233.76-4.99 231.98-3.22Q230.21-1.44 227.23-0.29Q224.26 0.86 219.74 0.86Q214.37 0.86 210.14-1.54Q205.92-3.94 203.52-8.35Q201.12-12.77 201.12-18.82L201.12-47.33L211.01-47.33L211.01-19.58Q211.01-13.44 214.08-10.51Q217.15-7.58 222.62-7.58Q228.67-7.58 232.37-11.62Q236.06-15.65 236.06-23.33L236.06-47.33L245.95-47.33L245.95 9.70Q245.95 14.02 243.41 16.61Q240.86 19.20 236.45 19.20M270.43 0L260.54 0L260.54-47.33L270.24-47.33L270.24-40.22L271.78-40.22Q273.12-43.10 276.58-45.60Q280.03-48.10 286.85-48.10Q292.22-48.10 296.40-45.70Q300.58-43.30 302.98-38.93Q305.38-34.56 305.38-28.42L305.38 0L295.49 0L295.49-27.65Q295.49-33.79 292.42-36.72Q289.34-39.65 283.97-39.65Q277.82-39.65 274.13-35.62Q270.43-31.58 270.43-23.90" fill="#FAFAFA" transform="translate(124 74.7)"/>
</svg>
